<svg width="113" height="151" viewBox="0 0 113 151" fill="none" xmlns="http://www.w3.org/2000/svg">
<path d="M65.9167 40.1094V0H7.0625C3.1487 0 0 3.15566 0 7.07812V143.922C0 147.844 3.1487 151 7.0625 151H105.938C109.851 151 113 147.844 113 143.922V47.1875H72.9792C69.0948 47.1875 65.9167 44.0023 65.9167 40.1094ZM88.4137 102.444L60.0401 130.668C58.0832 132.618 54.9227 132.618 52.9658 130.668L24.5922 102.444C21.6054 99.4742 23.7006 94.375 27.9028 94.375H47.0833V70.7812C47.0833 68.1741 49.1903 66.0625 51.7917 66.0625H61.2083C63.8097 66.0625 65.9167 68.1741 65.9167 70.7812V94.375H85.0972C89.2994 94.375 91.3946 99.4742 88.4137 102.444ZM110.94 30.9668L82.131 2.06445C80.8068 0.737305 79.0117 0 77.1284 0H75.3333V37.75H113V35.951C113 34.093 112.264 32.2939 110.94 30.9668Z" fill="white"/>
</svg>
