<svg width="45" height="32" viewBox="0 0 45 32" fill="none" xmlns="http://www.w3.org/2000/svg">
<path d="M44.0597 5.00692C43.5421 3.03608 42.0173 1.48392 40.0812 0.957167C36.5719 0 22.5 0 22.5 0C22.5 0 8.42818 0 4.91879 0.957167C2.9827 1.484 1.45786 3.03608 0.940319 5.00692C0 8.57917 0 16.0323 0 16.0323C0 16.0323 0 23.4855 0.940319 27.0578C1.45786 29.0286 2.9827 30.5161 4.91879 31.0428C8.42818 32 22.5 32 22.5 32C22.5 32 36.5718 32 40.0812 31.0428C42.0173 30.5161 43.5421 29.0286 44.0597 27.0578C45 23.4855 45 16.0323 45 16.0323C45 16.0323 45 8.57917 44.0597 5.00692ZM17.8977 22.7993V9.26542L29.659 16.0325L17.8977 22.7993Z" fill="white"/>
</svg>
