<svg width="55" height="50" viewBox="0 0 55 50" fill="none" xmlns="http://www.w3.org/2000/svg">
<path d="M15.2778 43.75C12.8333 43.75 10.3889 41.5625 9.16667 40.625C3.05556 36.25 1.22222 34.6875 0 33.75V46.875C0 48.6006 1.36832 50 3.05556 50H27.5C29.1872 50 30.5556 48.6006 30.5556 46.875V33.75C29.3333 34.6875 27.5 36.25 21.3889 40.625C20.1667 41.5625 17.7222 43.75 15.2778 43.75ZM27.5 25H3.05556C1.36832 25 0 26.3994 0 28.125V29.6875C2.44444 31.5625 2.13889 31.5625 11 38.125C11.9167 38.75 13.75 40.625 15.2778 40.625C16.8056 40.625 18.6389 38.75 19.5556 38.4375C28.4167 31.875 28.1111 31.875 30.5556 30V28.125C30.5556 26.3994 29.1872 25 27.5 25ZM51.9444 15.625H21.3889C19.7016 15.625 18.3333 17.0244 18.3333 18.75V21.875H27.5C30.6711 21.875 33.2855 24.3574 33.5834 27.5215L33.6111 27.5V40.625H51.9444C53.6317 40.625 55 39.2256 55 37.5V18.75C55 17.0244 53.6317 15.625 51.9444 15.625ZM48.8889 28.125H42.7778V21.875H48.8889V28.125ZM15.2778 18.75C15.2778 15.3037 18.0192 12.5 21.3889 12.5H42.7778V3.125C42.7778 1.39941 41.4095 0 39.7222 0H9.16667C7.47943 0 6.11111 1.39941 6.11111 3.125V21.875H15.2778V18.75Z" fill="white"/>
</svg>
