<svg width="47" height="50" viewBox="0 0 47 50" fill="none" xmlns="http://www.w3.org/2000/svg">
<path d="M45.6596 35.3318L35.3782 30.6442C34.939 30.4451 34.4509 30.4031 33.9873 30.5246C33.5237 30.6462 33.1098 30.9246 32.8079 31.318L28.2547 37.2361C21.1088 33.6519 15.3581 27.534 11.9889 19.9321L17.5519 15.0882C17.9224 14.7676 18.1847 14.3273 18.299 13.8339C18.4133 13.3405 18.3734 12.8209 18.1853 12.3538L13.779 1.41613C13.5725 0.912616 13.2074 0.501512 12.7465 0.253708C12.2857 0.00590357 11.758 -0.063068 11.2545 0.0586859L1.70745 2.40248C1.22199 2.52174 0.788866 2.81252 0.478761 3.22738C0.168657 3.64223 -0.00011183 4.15666 5.5595e-08 4.6867C5.5595e-08 29.736 19.0849 50 42.5945 50C43.0929 50.0003 43.5767 49.8209 43.9668 49.491C44.357 49.1611 44.6304 48.7002 44.7426 48.1836L46.9457 38.0271C47.0594 37.4889 46.9932 36.9253 46.7585 36.4333C46.5238 35.9414 46.1352 35.5518 45.6596 35.3318Z" fill="white"/>
</svg>
