<svg width="48" height="59" viewBox="0 0 48 59" fill="none" xmlns="http://www.w3.org/2000/svg">
<path d="M41.0511 7.32891C36.5431 2.6043 30.5985 0 24.3036 0C10.908 0 0 11.0855 0 24.7062C0 33.3604 6.75036 43.1207 9.65839 46.9119C13.9328 52.4893 20.3328 59 24.3036 59C29.162 59 37.4891 48.1449 38.4234 46.9004C41.2963 43.0861 48 33.2682 48 24.7062C48 18.1955 45.5358 12.0189 41.0511 7.32891ZM24.3036 56.9143C19.3401 56.9143 2.11387 37.6355 2.11387 24.7178C2.11387 12.3416 11.9124 2.09727 24.3036 2.09727C36.0759 2.09727 45.8745 12.3531 45.8745 24.7178C45.8861 37.6355 28.6599 56.9143 24.3036 56.9143ZM37.3139 23.8305C37.3139 30.6408 31.346 36.4717 24.3737 36.4717C12.6248 36.4717 6.77372 24.0033 13.5241 15.5221V15.5682C13.5241 18.3914 15.8715 20.6846 18.7562 20.6846C21.6409 20.6846 23.9883 18.3914 23.9883 15.5682C23.9883 13.4709 22.692 11.6732 20.8467 10.8781C29.7927 8.66562 37.3139 15.4068 37.3139 23.8305Z" fill="white"/>
</svg>
